<svg width="37" height="40" viewBox="0 0 37 40" xmlns="http://www.w3.org/2000/svg">
    <defs>
        <linearGradient x1="1.374%" y1="50%" x2="100%" y2="50%" id="3urre2u6va">
            <stop stop-color="var(--primary-gradient-color)" offset="0%"/>
            <stop stop-color="var(--secondary-gradient-color)" offset="100%"/>
        </linearGradient>
    </defs>
    <path d="M33.033 26.044a6.92 6.92 0 0 1 2.064 4.937 6.915 6.915 0 0 1-1.148 3.82L37 38.095 34.895 40l-2.942-3.206a7.068 7.068 0 0 1-3.904 1.168 7.08 7.08 0 0 1-4.985-2.044A6.917 6.917 0 0 1 21 30.981c0-1.925.791-3.672 2.064-4.937A7.053 7.053 0 0 1 28.049 24c1.944 0 3.708.784 4.984 2.044zM10.94 26.5c-.519 0-.939-.567-.939-1.25 0-.696.42-1.25.939-1.25h6.122c.519 0 .939.566.939 1.25 0 .696-.42 1.25-.939 1.25H10.94zm.046-13c-.544 0-.985-.56-.985-1.25s.441-1.25.985-1.25h13.03c.544 0 .985.56.985 1.25s-.441 1.25-.985 1.25h-13.03zM0 2h2.5v33H0zm0-2h33v2.5H0zm31 0h2.5v23H31zM0 35h19v2.5H0zm10.985-15.5c-.544 0-.985-.56-.985-1.25s.441-1.25.985-1.25h13.03c.544 0 .985.56.985 1.25s-.441 1.25-.985 1.25h-13.03zm21.108 7.408a5.755 5.755 0 0 0-4.063-1.673 5.756 5.756 0 0 0-4.064 1.673 5.671 5.671 0 0 0 0 8.068 5.756 5.756 0 0 0 4.064 1.672 5.755 5.755 0 0 0 4.063-1.672 5.67 5.67 0 0 0 0-8.068z" fill="url(#3urre2u6va)" fill-rule="nonzero"/>
</svg>
