<svg width="28" height="26" viewBox="0 0 28 26" xmlns="http://www.w3.org/2000/svg">
    <defs>
        <linearGradient x1="17.409%" y1="-6.34%" x2="82.591%" y2="106.34%" id="8tximgxb6a">
            <stop stop-color="#18884F" offset="0%"/>
            <stop stop-color="#117E43" offset="50%"/>
            <stop stop-color="#0B6631" offset="100%"/>
        </linearGradient>
    </defs>
    <g fillRule="nonzero" fill="none">
        <path d="M17.333 12 6 10v14.778A1.224 1.224 0 0 0 7.221 26h19.556A1.22 1.22 0 0 0 28 24.778v-5.445L17.333 12z" fill="#185C37"/>
        <path d="M17.333 0H7.22c-.323 0-.634.125-.863.35C6.13.574 6 .878 6 1.195v5.327l11.333 6.521 6 1.957L28 13.043V6.522L17.333 0z" fill="#21A366"/>
        <path fill="#107C41" d="M6 6h11v7H6z"/>
        <path d="M13.821 5H6v16h7.821A1.183 1.183 0 0 0 15 19.827V6.173A1.183 1.183 0 0 0 13.821 5z" fill="#000" opacity=".1"/>
        <path d="M13.783 5.85H6.512V22.1h7.271a1.2 1.2 0 0 0 1.194-1.191V7.041a1.2 1.2 0 0 0-1.194-1.191z" fill="#000" opacity=".2"/>
        <path d="M13.73 6H6v15h7.73c.699-.003 1.265-.536 1.27-1.195V7.195c-.005-.66-.571-1.192-1.27-1.195z" fill="#000" opacity=".2"/>
        <path d="M13.132 5.85h-6.62V20.8h6.62a1.2 1.2 0 0 0 1.194-1.191V7.041a1.2 1.2 0 0 0-1.194-1.191z" fill="#000" opacity=".2"/>
        <path d="M1.194 5.85h11.938c.658 0 1.193.533 1.194 1.191v11.918a1.193 1.193 0 0 1-1.194 1.191H1.194A1.192 1.192 0 0 1 0 18.959V7.041A1.192 1.192 0 0 1 1.194 5.85z" fill="url(#8tximgxb6a)"/>
        <path d="m4 16.997 2.536-4.01L4.213 9H6.08l1.267 2.553c.118.242.202.421.24.541h.018a9.89 9.89 0 0 1 .263-.564l1.355-2.526h1.717L8.557 12.97 11 17H9.173l-1.465-2.799a2.456 2.456 0 0 1-.173-.377h-.024a1.76 1.76 0 0 1-.17.363l-1.508 2.81H4z" fill="#FFF"/>
        <path d="M26.74 0H17v7h11V1.283c0-.341-.133-.668-.37-.908A1.246 1.246 0 0 0 26.74 0z" fill="#33C481"/>
        <path fill="#107C41" d="M17.581 13H28v6.5H17.581z"/>
    </g>
</svg>
