<svg width="15" height="14" viewBox="0 0 15 14" fill="none" xmlns="http://www.w3.org/2000/svg">
    <path d="M9.412 6.188h.764c.406 0 .795.17 1.082.475.287.305.448.719.448 1.15v2.437c0 .323.12.633.336.862.215.228.507.357.811.357.304 0 .596-.129.811-.357.215-.229.336-.539.336-.862V4.562l-2.294-2.437M1.765 13.5V2.125c0-.431.16-.844.448-1.149A1.485 1.485 0 0 1 3.294.5h4.588c.406 0 .795.171 1.082.476.287.305.448.718.448 1.149V13.5M1 13.5h9.177" stroke="#333" stroke-linecap="round" stroke-linejoin="round"/>
    <path d="M12.47 2.938v.812c0 .215.081.422.225.575a.743.743 0 0 0 .54.237H14M1.765 6.188h7.647" stroke="#333" stroke-linecap="round" stroke-linejoin="round"/>
</svg>
