<svg width="27" height="25" viewBox="0 0 27 25" xmlns="http://www.w3.org/2000/svg">
    <g fillRule="nonzero" fill="none">
        <path d="M26.03 9 13.7.23a1.052 1.052 0 0 0-1.312 0L.029 9l12.359 9.77c.379.306.933.306 1.312 0L26.03 9z" fill="#33C481"/>
        <path d="M21 3.5c.414 0 .79.168 1.06.44.272.27.44.646.44 1.06v6.683a1.1 1.1 0 0 1-.464.897l-8.188 5.81c-.13.105-.495.11-.834.11h-.128c-.298-.003-.592-.018-.706-.11l-8.215-5.81a1.1 1.1 0 0 1-.465-.899V5c0-.414.168-.79.44-1.06.27-.272.646-.44 1.06-.44z" stroke="#21A366" fill="#FFF"/>
        <path fill="#185C37" opacity=".4" d="M6 6h14v1H6zM6 8h14v1H6zM6 10h14v1H6zM6 12h9v1H6z"/>
        <path d="M26 9v14.915c0 .584-.495 1.085-1.135 1.085H1.135C.525 25 0 24.527 0 23.915V9l12.345 8.431c.378.279.932.279 1.31 0L26 9z" fill="#108444"/>
        <path d="M26 24.66c-.21.217-.478.34-.807.34H.807c-.329 0-.598-.123-.807-.34L10.16 16l2.153 1.574c.388.309.956.309 1.344 0L15.81 16 26 24.66z" fill="#185C37"/>
    </g>
</svg>
